<svg width="169" height="29" viewBox="0 0 169 29" fill="none" xmlns="http://www.w3.org/2000/svg">
<path d="M2.16 28H0.96V-1.90735e-06H2.16V28ZM23.2616 26.8V28H9.90156V4.8H11.1016V26.8H23.2616ZM41.2303 26.8V28H27.8703V4.8H29.0703V26.8H41.2303ZM46.6391 4.8V16.4C46.6391 20.3733 47.2657 23.1733 48.5191 24.8C49.7991 26.4 51.5457 27.2 53.7591 27.2C55.9724 27.2 57.7057 26.4 58.9591 24.8C60.2391 23.1733 60.8791 20.3733 60.8791 16.4V4.8H62.0791V16.4C62.0791 24.4 59.3057 28.4 53.7591 28.4C48.2124 28.4 45.4391 24.4 45.4391 16.4V4.8H46.6391ZM73.0366 26.8H88.4766V6.48L79.4766 15.48L70.4766 6.48V28L69.2766 27.96V4.8H70.4766L79.4766 13.8L88.4766 4.8H89.6766V28L73.0366 27.96V26.8ZM97.2844 4.8H98.4844V28H97.2844V4.8ZM106.073 28V4.8H107.273L120.313 25.8V4.8H121.513V28H120.313L107.273 6.96V28H106.073ZM140.8 6.04C139.894 5.74667 138.774 5.6 137.44 5.6C136.107 5.6 134.987 5.74667 134.08 6.04C133.174 6.30667 132.334 6.82667 131.56 7.6C130.814 8.34667 130.254 9.45333 129.88 10.92C129.507 12.36 129.32 14.1867 129.32 16.4C129.32 18.6133 129.507 20.4533 129.88 21.92C130.254 23.36 130.814 24.4667 131.56 25.24C132.334 25.9867 133.174 26.5067 134.08 26.8C134.987 27.0667 136.107 27.2 137.44 27.2C138.774 27.2 139.894 27.0667 140.8 26.8C141.707 26.5067 142.534 25.9867 143.28 25.24C144.054 24.4667 144.627 23.36 145 21.92C145.374 20.4533 145.56 18.6133 145.56 16.4C145.56 14.1867 145.374 12.36 145 10.92C144.627 9.45333 144.054 8.34667 143.28 7.6C142.534 6.82667 141.707 6.30667 140.8 6.04ZM144.6 25.56C143.16 27.4533 140.774 28.4 137.44 28.4C134.107 28.4 131.72 27.4533 130.28 25.56C128.84 23.6667 128.12 20.6133 128.12 16.4C128.12 12.1867 128.84 9.13333 130.28 7.24C131.72 5.34667 134.107 4.4 137.44 4.4C140.774 4.4 143.16 5.34667 144.6 7.24C146.04 9.13333 146.76 12.1867 146.76 16.4C146.76 20.6133 146.04 23.6667 144.6 25.56ZM159.498 4.32C162.805 4.32 165.151 5.05333 166.538 6.52L165.738 7.4C164.458 6.14667 162.431 5.52 159.658 5.52C155.498 5.52 153.418 7.17333 153.418 10.48C153.418 11.76 153.925 12.7867 154.938 13.56C155.951 14.3067 157.178 14.88 158.618 15.28C160.085 15.68 161.538 16.1067 162.978 16.56C164.445 16.9867 165.685 17.6933 166.698 18.68C167.711 19.64 168.218 20.9067 168.218 22.48C168.218 24.32 167.458 25.7867 165.938 26.88C164.418 27.9733 162.218 28.52 159.338 28.52C157.925 28.52 156.525 28.3333 155.138 27.96C153.778 27.5867 152.765 27.04 152.098 26.32L152.898 25.44C154.258 26.6933 156.351 27.32 159.178 27.32C161.765 27.32 163.711 26.84 165.018 25.88C166.351 24.92 167.018 23.8 167.018 22.52C167.018 21.1867 166.511 20.1067 165.498 19.28C164.485 18.4533 163.245 17.84 161.778 17.44C160.338 17.0133 158.885 16.5867 157.418 16.16C155.978 15.7067 154.751 15.0133 153.738 14.08C152.725 13.1467 152.218 11.92 152.218 10.4C152.218 8.34667 152.898 6.82667 154.258 5.84C155.645 4.82667 157.391 4.32 159.498 4.32Z" fill="white"/>
</svg>
